<svg xmlns="http://www.w3.org/2000/svg" viewBox="0 0 120 120"><defs><radialGradient id="g" cx=".3" cy=".25"><stop stop-color="#adf2ef"/><stop offset="1" stop-color="#4686b0"/></radialGradient></defs><circle cx="60" cy="58" r="34" fill="url(#g)" stroke="#c0efff" stroke-width="3"/><path d="M28 57a32 32 0 0 1 64 0" fill="none" stroke="#c5a0fa" stroke-width="9"/><rect x="18" y="49" width="14" height="29" rx="7" fill="#8353b8" stroke="#d9baff" stroke-width="2"/><rect x="88" y="49" width="14" height="29" rx="7" fill="#8353b8" stroke="#d9baff" stroke-width="2"/><rect x="37" y="46" width="46" height="29" rx="12" fill="#1b334c"/><circle cx="48" cy="59" r="4" fill="#b3ffff"/><circle cx="72" cy="59" r="4" fill="#b3ffff"/><path d="M53 67q7 6 14 0" fill="none" stroke="#b3ffff" stroke-width="2" stroke-linecap="round"/><path d="M28 88q32 23 64 0" fill="none" stroke="#edcc83" stroke-width="4"/><path d="M58 12l4 6 7 1-5 5 1 6-7-3-6 3 1-6-5-5 7-1z" fill="#ffe1a3"/></svg>